# xmcd
#
# Track frame offsets:
#	150
#	16360
#	39250
#	52044
#	65689
#	77282
#	89299
#	101398
#	112032
#	123561
#	136490
#	149034
#	164112
#	175758
#	191109
#	204799
#	218370
#	229371
#	242611
#	251679
#	260175
#	272511
#	286236
#	295899
#	308611
#
# Disc length: 4340 seconds
#
# Revision: 1
# Processed by: cddbd v1.5.2PL0 Copyright (c) Steve Scherf et al.
# Submitted via: audiograbber 1.83.01
#
DISCID=7310f219
DTITLE=Ray Charles - The Very Best Of
DYEAR=2011
DGENRE=Rhythm and Blues
TTITLE0=Georgia On My Mind
TTITLE1=What'd I Say
TTITLE2=I've Got A Woman
TTITLE3=A Fool For You
TTITLE4=Hallelujah, I Love Her So
TTITLE5=Leave My Woman Alone
TTITLE6=Mess Around
TTITLE7=I'm Movin' On
TTITLE8=This Little Girl Of Mine
TTITLE9=Let The Good Times Roll
TTITLE10=Mary Ann
TTITLE11=Drown In My Own Tears
TTITLE12=Lonely Avenue
TTITLE13=Just For A Thrill
TTITLE14=Chattanooga Choo Choo
TTITLE15=Moonlight In Vermont
TTITLE16='Deed I Do
TTITLE17=Blue Hawaii
TTITLE18=Carry Me Back To Old Virginny
TTITLE19=Alabamy Bound
TTITLE20=Basin Street Blues
TTITLE21=New York's My Home
TTITLE22=California, Here I Come
TTITLE23=Feelin' Sad
TTITLE24=Don't Let The Sun Catch You Cryin' 
EXTD=
EXTT0=
EXTT1=
EXTT2=
EXTT3=
EXTT4=
EXTT5=
EXTT6=
EXTT7=
EXTT8=
EXTT9=
EXTT10=
EXTT11=
EXTT12=
EXTT13=
EXTT14=
EXTT15=
EXTT16=
EXTT17=
EXTT18=
EXTT19=
EXTT20=
EXTT21=
EXTT22=
EXTT23=
EXTT24=
PLAYORDER=
